<?xml version="1.0" encoding="iso-8859-1"?>
<!-- Generator: Adobe Illustrator 19.0.0, SVG Export Plug-In . SVG Version: 6.00 Build 0)  -->
<svg version="1.1" id="Capa_1" xmlns="http://www.w3.org/2000/svg" xmlns:xlink="http://www.w3.org/1999/xlink" x="0px" y="0px"
	 viewBox="0 0 383.478 383.478" style="enable-background:new 0 0 383.478 383.478;" xml:space="preserve">
<path style="fill:#3A2C51;" d="M378.775,356.833l-80.457-80.98c-6.792,7.837-14.106,15.673-21.943,21.943l80.457,80.98
	c3.135,3.135,7.314,4.702,10.971,4.702s7.837-1.567,10.971-4.702C385.045,373.029,385.045,363.102,378.775,356.833z"/>
<path style="fill:#4DCFE0;" d="M300.408,277.943c24.555-29.257,39.184-67.396,39.184-108.147C339.592,76.278,263.314,0,169.796,0
	S0,76.278,0,169.796s76.278,169.796,169.796,169.796c41.273,0,78.89-14.629,108.147-39.184
	C286.302,293.616,293.616,286.302,300.408,277.943z M31.347,169.796c0-76.278,62.171-138.449,138.449-138.449
	s138.449,62.171,138.449,138.449s-62.171,138.449-138.449,138.449S31.347,246.073,31.347,169.796z"/>
<g>
</g>
<g>
</g>
<g>
</g>
<g>
</g>
<g>
</g>
<g>
</g>
<g>
</g>
<g>
</g>
<g>
</g>
<g>
</g>
<g>
</g>
<g>
</g>
<g>
</g>
<g>
</g>
<g>
</g>
</svg>
