<svg height="480pt" viewBox="0 -2 480 479" width="480pt" xmlns="http://www.w3.org/2000/svg"><path d="m286.398438 137.503906-12.796876-9.601562 43.199219-54.398438c6.398438-7.203125 8-17.601562 4-26.402344-4.800781-13.597656-20-20-33.601562-15.199218l-4.800781 1.601562-5.597657-15.203125 4.800781-1.597656c21.597657-8.800781 46.398438 2.398437 54.398438 24 5.601562 14.398437 3.199219 30.398437-6.398438 42.398437zm0 0" fill="#e8821c"/><path d="m151.199219 188.703125-62.398438-7.199219c-24-2.402344-41.601562-24.800781-39.199219-48.800781 1.597657-16.800781 12.796876-30.402344 28-36.800781l7.199219-3.199219 5.597657 15.199219-7.199219 3.199218c-14.398438 5.601563-21.597657 22.402344-16 36.800782 4 9.601562 12.800781 16.800781 23.199219 17.601562l62.402343 7.199219zm0 0" fill="#e8821c"/><path d="m211.199219 199.902344-31.199219-3.199219c-36-3.199219-67.199219-26.402344-80.800781-60.800781l-20.800781-52.800782c-3.199219-8 .800781-17.597656 8.800781-20.800781h.800781l168.800781-60.796875c8-3.203125 17.597657 1.597656 20.800781 9.597656l17.597657 52.800782c10.402343 32 4 67.199218-18.398438 92.800781l-21.601562 24.800781 85.601562 224h32c6.398438 0 12.800781 4 14.398438 10.398438l4.800781 12-117.601562 46.398437-4.796876-12c-2.402343-6.398437-.800781-12.796875 4-17.597656l23.199219-22.402344zm0 0" fill="#f4a422"/><path d="m245.601562 146.300781-11.203124-11.199219c35.203124-35.199218-.796876-93.597656-.796876-94.398437l13.597657-8.800781c1.601562 3.199218 42.402343 70.398437-1.597657 114.398437zm0 0" fill="#edc17c"/><path d="m387.199219 416.703125c-2.398438-6.402344-8-10.402344-14.398438-10.402344h-32l-44 17.601563-23.199219 22.398437c-4.800781 4.800781-6.402343 11.203125-4 17.601563l4.796876 12 117.601562-46.398438zm0 0" fill="#e8821c"/><path d="m371.199219 319.101562-45.597657-122.398437c-3.203124-8-12-12.800781-20.800781-9.601563h-.800781l-88 38.402344c-4.800781 2.398438-8 6.398438-9.601562 11.199219l-6.398438 32-200 80v112l232-96 59.199219 7.199219c3.199219 0 6.402343 0 8.800781-1.601563l63.199219-31.199219c7.199219-4 10.402343-12 8-20zm0 0" fill="#efccbf"/><path d="m200 268.703125-80 32 32 96.800781 80-32.800781zm0 0" fill="#676b7f"/><g fill="#f4c167"><path d="m400 28.703125v8c0 26.398437-21.601562 48-48 48 26.398438 0 48 21.597656 48 48v8-8c0-26.402344 21.601562-48 48-48-26.398438 0-48-21.601563-48-48zm0 0"/><path d="m48 188.703125v8c0 26.398437-21.601562 48-48 48 26.398438 0 48 21.597656 48 48v8-8c0-26.402344 21.601562-48 48-48-26.398438 0-48-21.601563-48-48zm0 0"/><path d="m432 188.703125v8c0 26.398437-21.601562 48-48 48 26.398438 0 48 21.597656 48 48v8-8c0-26.402344 21.601562-48 48-48-26.398438 0-48-21.601563-48-48zm0 0"/></g><path d="m152 397.503906-152 63.199219v-112l120-48zm0 0" fill="#4a4a56"/><path d="m168.800781 359.101562 14.398438-4.800781-23.199219-69.597656-14.398438 5.597656zm0 0" fill="#4a4a56"/><path d="m332 213.503906-46.398438 16 4.796876 14.398438 47.203124-15.199219zm0 0" fill="#d8b4ad"/><path d="m347.199219 254.300781-45.597657 15.203125 4.796876 14.398438 46.402343-15.199219zm0 0" fill="#d8b4ad"/><path d="m361.601562 294.300781-44 15.203125 4.796876 14.398438 44.800781-14.398438zm0 0" fill="#d8b4ad"/><path d="m286.398438 137.503906-12.796876-9.601562 43.199219-54.398438c6.398438-7.203125 8-17.601562 4-26.402344-4.800781-13.597656-20-20-33.601562-15.199218l-4.800781 1.601562-5.597657-15.203125 4.800781-1.597656c21.597657-8.800781 46.398438 2.398437 54.398438 24 5.601562 14.398437 3.199219 30.398437-6.398438 42.398437zm0 0" fill="#e8821c"/><path d="m151.199219 188.703125-62.398438-7.199219c-24-2.402344-41.601562-24.800781-39.199219-48.800781 1.597657-16.800781 12.796876-30.402344 28-36.800781l7.199219-3.199219 5.597657 15.199219-7.199219 3.199218c-14.398438 5.601563-21.597657 22.402344-16 36.800782 4 9.601562 12.800781 16.800781 23.199219 17.601562l62.402343 7.199219zm0 0" fill="#e8821c"/><path d="m211.199219 199.902344-31.199219-3.199219c-36-3.199219-67.199219-26.402344-80.800781-60.800781l-20.800781-52.800782c-3.199219-8 .800781-17.597656 8.800781-20.800781h.800781l168.800781-60.796875c8-3.203125 17.597657 1.597656 20.800781 9.597656l17.597657 52.800782c10.402343 32 4 67.199218-18.398438 92.800781l-21.601562 24.800781 85.601562 224h32c6.398438 0 12.800781 4 14.398438 10.398438l4.800781 12-117.601562 46.398437-4.796876-12c-2.402343-6.398437-.800781-12.796875 4-17.597656l23.199219-22.402344zm0 0" fill="#f4a422"/><path d="m245.601562 146.300781-11.203124-11.199219c35.203124-35.199218-.796876-93.597656-.796876-94.398437l13.597657-8.800781c1.601562 3.199218 42.402343 70.398437-1.597657 114.398437zm0 0" fill="#edc17c"/><path d="m387.199219 416.703125c-2.398438-6.402344-8-10.402344-14.398438-10.402344h-32l-44 17.601563-23.199219 22.398437c-4.800781 4.800781-6.402343 11.203125-4 17.601563l4.796876 12 117.601562-46.398438zm0 0" fill="#e8821c"/><path d="m371.199219 319.101562-45.597657-122.398437c-3.203124-8-12-12.800781-20.800781-9.601563h-.800781l-88 38.402344c-4.800781 2.398438-8 6.398438-9.601562 11.199219l-6.398438 32-200 80v112l232-96 59.199219 7.199219c3.199219 0 6.402343 0 8.800781-1.601563l63.199219-31.199219c7.199219-4 10.402343-12 8-20zm0 0" fill="#efccbf"/><path d="m200 268.703125-80 32 32 96.800781 80-32.800781zm0 0" fill="#676b7f"/><path d="m400 28.703125v8c0 26.398437-21.601562 48-48 48 26.398438 0 48 21.597656 48 48v8-8c0-26.402344 21.601562-48 48-48-26.398438 0-48-21.601563-48-48zm0 0" fill="#f4c167"/><path d="m48 188.703125v8c0 26.398437-21.601562 48-48 48 26.398438 0 48 21.597656 48 48v8-8c0-26.402344 21.601562-48 48-48-26.398438 0-48-21.601563-48-48zm0 0" fill="#f4c167"/><path d="m432 188.703125v8c0 26.398437-21.601562 48-48 48 26.398438 0 48 21.597656 48 48v8-8c0-26.402344 21.601562-48 48-48-26.398438 0-48-21.601563-48-48zm0 0" fill="#f4c167"/><path d="m152 397.503906-152 63.199219v-112l120-48zm0 0" fill="#4a4a56"/><path d="m168.800781 359.101562 14.398438-4.800781-23.199219-69.597656-14.398438 5.597656zm0 0" fill="#4a4a56"/><path d="m332 213.503906-46.398438 16 4.796876 14.398438 47.203124-15.199219zm0 0" fill="#d8b4ad"/><path d="m347.199219 254.300781-45.597657 15.203125 4.796876 14.398438 46.402343-15.199219zm0 0" fill="#d8b4ad"/><path d="m361.601562 294.300781-44 15.203125 4.796876 14.398438 44.800781-14.398438zm0 0" fill="#d8b4ad"/></svg>